<svg width="14" height="18" viewBox="0 0 14 18" fill="none" xmlns="http://www.w3.org/2000/svg">
<path d="M0.5 16.6667V1.33337C0.5 0.781089 0.947715 0.333374 1.5 0.333374H12.5C13.0523 0.333374 13.5 0.78109 13.5 1.33337V16.6667C13.5 17.219 13.0523 17.6667 12.5 17.6667H1.5C0.947715 17.6667 0.5 17.219 0.5 16.6667Z" fill="#1E1E1E"/>
<path d="M5.5 10H3.25C2.55964 10 2 10.5596 2 11.25V11.5V11.75C2 12.4404 2.55964 13 3.25 13H4.25C4.94036 13 5.5 13.5596 5.5 14.25V14.75C5.5 15.4404 4.94036 16 4.25 16H2" stroke="#FFF9F2" stroke-linecap="round"/>
<path d="M2 8.5V2.25386C2 2.16308 2.11122 2.11927 2.17313 2.18566L4.42687 4.60243C4.4664 4.64482 4.5336 4.64482 4.57313 4.60243L6.82687 2.18566C6.88878 2.11927 7 2.16308 7 2.25386V16" stroke="#FFF9F2" stroke-linecap="round"/>
<path d="M12 12.4255L7.12041 9.08249C7.06244 9.04277 7.06244 8.95722 7.12041 8.9175L12 5.57446" stroke="#FFF9F2" stroke-linecap="round"/>
<path d="M9.5 4.75C9.5 4.88807 9.38807 5 9.25 5C9.11193 5 9 4.88807 9 4.75C9 4.61193 9.11193 4.5 9.25 4.5C9.38807 4.5 9.5 4.61193 9.5 4.75Z" fill="#FFF9F2" stroke="#FFF9F2"/>
<path d="M9.5 13.25C9.5 13.3881 9.38807 13.5 9.25 13.5C9.11193 13.5 9 13.3881 9 13.25C9 13.1119 9.11193 13 9.25 13C9.38807 13 9.5 13.1119 9.5 13.25Z" fill="#FFF9F2" stroke="#FFF9F2"/>
</svg>
