<svg width="20" height="20" viewBox="0 0 20 20" fill="none" xmlns="http://www.w3.org/2000/svg">
<path d="M16.4647 14.8659L15.5135 15.8171C14.7642 16.5664 13.7338 16.9752 12.7435 16.5981C11.5001 16.1246 9.59737 15.0747 7.26977 12.7471C6.46134 11.9387 5.80696 11.1862 5.27728 10.4969C4.80498 9.88232 4.43184 9.3179 4.13706 8.80874C3.77603 8.18518 3.53254 7.6445 3.36836 7.19602C3.02213 6.25022 3.42527 5.27788 4.13745 4.5657L5.15098 3.55217C5.54151 3.16165 6.17467 3.16165 6.5652 3.55217L7.97941 4.96638C8.36993 5.35691 8.36993 5.99007 7.97941 6.3806L7.1173 7.2427C6.79284 7.56717 6.73164 8.06986 6.98946 8.44945C7.4264 9.09275 8.16566 10.1023 9.04008 10.9768C9.91451 11.8512 10.9241 12.5905 11.5674 13.0274C11.947 13.2852 12.4497 13.224 12.7742 12.8996L13.6363 12.0375C14.0268 11.6469 14.66 11.6469 15.0505 12.0375L16.4647 13.4517C16.8552 13.8422 16.8552 14.4754 16.4647 14.8659Z" stroke="black"/>
</svg>
